<mxfile host="drawio-plugin" modified="2023-03-16T05:12:25.940Z" agent="5.0 (Macintosh; Intel Mac OS X 10_15_7) AppleWebKit/537.36 (KHTML, like Gecko) Chrome/104.0.5112.102 Safari/537.36" etag="pQeo_HwYNzoXI6sNcIjS" version="20.5.3" type="embed"><diagram id="i8PdjXE0pxtSnCWSFXLq" name="Page-1"><mxGraphModel dx="1942" dy="1075" grid="0" gridSize="10" guides="1" tooltips="1" connect="1" arrows="1" fold="1" page="0" pageScale="1" pageWidth="850" pageHeight="1100" math="0" shadow="0"><root><mxCell id="0"/><mxCell id="1" parent="0"/><mxCell id="36" style="edgeStyle=orthogonalEdgeStyle;rounded=1;orthogonalLoop=1;jettySize=auto;html=1;exitX=1;exitY=0.5;exitDx=0;exitDy=0;dashed=1;strokeColor=default;strokeWidth=2;startArrow=block;" edge="1" parent="1" source="5" target="8"><mxGeometry relative="1" as="geometry"><Array as="points"><mxPoint x="-380" y="510"/><mxPoint x="-380" y="430"/></Array></mxGeometry></mxCell><mxCell id="5" value="ESP32_No.2" style="rounded=0;whiteSpace=wrap;html=1;" parent="1" vertex="1"><mxGeometry x="-580" y="420" width="120" height="180" as="geometry"/></mxCell><mxCell id="6" value="ESP32-CAM" style="rounded=0;whiteSpace=wrap;html=1;" parent="1" vertex="1"><mxGeometry x="-570" y="780" width="110" height="90" as="geometry"/></mxCell><mxCell id="18" value="" style="group" parent="1" vertex="1" connectable="0"><mxGeometry x="-730" y="60" width="290" height="240" as="geometry"/></mxCell><mxCell id="13" value="" style="rounded=1;whiteSpace=wrap;html=1;" parent="18" vertex="1"><mxGeometry width="290" height="240" as="geometry"/></mxCell><mxCell id="2" value="Motion Sensor ( )" style="whiteSpace=wrap;html=1;aspect=fixed;" parent="18" vertex="1"><mxGeometry x="20" y="30" width="80" height="80" as="geometry"/></mxCell><mxCell id="3" value="Sound Sendsor" style="whiteSpace=wrap;html=1;aspect=fixed;" parent="18" vertex="1"><mxGeometry x="20" y="130" width="80" height="80" as="geometry"/></mxCell><mxCell id="4" value="ESP32_No.1" style="rounded=0;whiteSpace=wrap;html=1;" parent="18" vertex="1"><mxGeometry x="140" y="30" width="120" height="180" as="geometry"/></mxCell><mxCell id="20" value="WiFi&amp;nbsp;" style="shape=loopLimit;whiteSpace=wrap;html=1;" parent="18" vertex="1"><mxGeometry x="170" y="160" width="60" height="50" as="geometry"/></mxCell><mxCell id="33" style="edgeStyle=orthogonalEdgeStyle;rounded=1;orthogonalLoop=1;jettySize=auto;html=1;entryX=1;entryY=0.5;entryDx=0;entryDy=0;exitX=0.5;exitY=0.74;exitDx=0;exitDy=0;exitPerimeter=0;strokeColor=default;startArrow=block;strokeWidth=2;dashed=1;" edge="1" parent="1" source="8" target="6"><mxGeometry relative="1" as="geometry"><Array as="points"><mxPoint x="-150" y="825"/></Array></mxGeometry></mxCell><mxCell id="34" style="edgeStyle=orthogonalEdgeStyle;rounded=1;orthogonalLoop=1;jettySize=auto;html=1;entryX=0;entryY=0.5;entryDx=0;entryDy=0;dashed=1;strokeColor=default;strokeWidth=2;startArrow=block;" edge="1" parent="1" source="8" target="30"><mxGeometry relative="1" as="geometry"/></mxCell><mxCell id="8" value="MQTT Server" style="whiteSpace=wrap;html=1;shape=mxgraph.basic.cloud_callout;movable=1;resizable=1;rotatable=1;deletable=1;editable=1;connectable=1;container=0;" parent="1" vertex="1"><mxGeometry x="-330" y="330" width="360" height="220" as="geometry"/></mxCell><mxCell id="25" value="database" style="shape=cylinder3;whiteSpace=wrap;html=1;boundedLbl=1;backgroundOutline=1;size=15;" vertex="1" parent="1"><mxGeometry x="490" y="780" width="255" height="280" as="geometry"/></mxCell><mxCell id="29" value="Blynk.App" style="rounded=0;whiteSpace=wrap;html=1;" vertex="1" parent="1"><mxGeometry x="110" y="-140" width="190" height="290" as="geometry"/></mxCell><mxCell id="38" style="edgeStyle=orthogonalEdgeStyle;rounded=1;orthogonalLoop=1;jettySize=auto;html=1;entryX=0.5;entryY=0;entryDx=0;entryDy=0;entryPerimeter=0;dashed=1;strokeColor=default;strokeWidth=2;startArrow=block;" edge="1" parent="1" source="30" target="25"><mxGeometry relative="1" as="geometry"/></mxCell><mxCell id="39" style="edgeStyle=orthogonalEdgeStyle;rounded=1;orthogonalLoop=1;jettySize=auto;html=1;entryX=1;entryY=0.5;entryDx=0;entryDy=0;dashed=1;strokeColor=default;strokeWidth=2;startArrow=block;" edge="1" parent="1" source="30" target="29"><mxGeometry relative="1" as="geometry"/></mxCell><mxCell id="30" value="Blynk.console" style="rounded=0;whiteSpace=wrap;html=1;" vertex="1" parent="1"><mxGeometry x="270" y="300" width="450" height="160" as="geometry"/></mxCell><mxCell id="35" style="edgeStyle=orthogonalEdgeStyle;rounded=1;orthogonalLoop=1;jettySize=auto;html=1;exitX=1;exitY=0.5;exitDx=0;exitDy=0;dashed=1;strokeColor=default;strokeWidth=2;startArrow=block;entryX=0.5;entryY=0;entryDx=0;entryDy=0;entryPerimeter=0;" edge="1" parent="1" source="13" target="8"><mxGeometry relative="1" as="geometry"><Array as="points"><mxPoint x="-385" y="180"/><mxPoint x="-385" y="150"/><mxPoint x="-150" y="150"/></Array></mxGeometry></mxCell><mxCell id="40" value="Front-End" style="text;html=1;strokeColor=none;fillColor=none;align=center;verticalAlign=middle;whiteSpace=wrap;rounded=0;" vertex="1" parent="1"><mxGeometry x="130" y="-200" width="160" height="30" as="geometry"/></mxCell></root></mxGraphModel></diagram></mxfile>